<svg xmlns="http://www.w3.org/2000/svg" width="1200" height="610" viewBox="0 0 1200 610" role="img" aria-labelledby="title desc">
<title id="title">MOLT 0.11.0a3 matched diagnostic reductions</title>
<desc id="desc">Elapsed time, board energy, and PyTorch allocator peak reductions relative to matched Unsloth diagnostic arms for Qwen, Llama-family, and Gemma. Official promotion gates did not pass.</desc>
<rect width="1200" height="610" fill="#ffffff"/>
<text x="60" y="50" font-family="Segoe UI,Arial,sans-serif" font-size="26" font-weight="600" fill="#111827">MOLT 0.11.0a3 matched diagnostic screen</text>
<text x="60" y="78" font-family="Segoe UI,Arial,sans-serif" font-size="15" fill="#4b5563">Reduction relative to tested Unsloth arms · positive favors MOLT · n=6 paired observations per family</text>
<text x="210.0" y="118" font-family="Segoe UI,Arial,sans-serif" font-size="17" font-weight="600" fill="#111827">Elapsed time reduction</text>
<rect x="210.0" y="145.0" width="220.0" height="260.0" fill="#f9fafb" stroke="#d1d5db"/>
<line x1="210.0" y1="145.0" x2="210.0" y2="405.0" stroke="#e5e7eb"/>
<text x="210.0" y="430" text-anchor="middle" font-family="Segoe UI,Arial,sans-serif" font-size="12" fill="#4b5563">0</text>
<line x1="265.0" y1="145.0" x2="265.0" y2="405.0" stroke="#e5e7eb"/>
<text x="265.0" y="430" text-anchor="middle" font-family="Segoe UI,Arial,sans-serif" font-size="12" fill="#4b5563">22</text>
<line x1="320.0" y1="145.0" x2="320.0" y2="405.0" stroke="#e5e7eb"/>
<text x="320.0" y="430" text-anchor="middle" font-family="Segoe UI,Arial,sans-serif" font-size="12" fill="#4b5563">45</text>
<line x1="375.0" y1="145.0" x2="375.0" y2="405.0" stroke="#e5e7eb"/>
<text x="375.0" y="430" text-anchor="middle" font-family="Segoe UI,Arial,sans-serif" font-size="12" fill="#4b5563">68</text>
<line x1="430.0" y1="145.0" x2="430.0" y2="405.0" stroke="#e5e7eb"/>
<text x="430.0" y="430" text-anchor="middle" font-family="Segoe UI,Arial,sans-serif" font-size="12" fill="#4b5563">90</text>
<text x="320.0" y="456" text-anchor="middle" font-family="Segoe UI,Arial,sans-serif" font-size="13" fill="#374151">Reduction (%)</text>
<text x="195" y="200.0" text-anchor="end" font-family="Segoe UI,Arial,sans-serif" font-size="14" font-weight="600" fill="#111827">Qwen</text>
<rect x="210.0" y="185.0" width="93.9" height="20" fill="#2563eb" opacity="0.20"/>
<line x1="284.0" y1="195.0" x2="323.8" y2="195.0" stroke="#2563eb" stroke-width="3"/>
<line x1="284.0" y1="187.0" x2="284.0" y2="203.0" stroke="#2563eb" stroke-width="2"/>
<line x1="323.8" y1="187.0" x2="323.8" y2="203.0" stroke="#2563eb" stroke-width="2"/>
<circle cx="303.9" cy="195.0" r="6" fill="#2563eb" stroke="#ffffff" stroke-width="2"/>
<text x="313.9" y="178.0" text-anchor="start" font-family="Segoe UI,Arial,sans-serif" font-size="12" font-weight="600" fill="#111827">38.42%</text>
<text x="195" y="280.0" text-anchor="end" font-family="Segoe UI,Arial,sans-serif" font-size="14" font-weight="600" fill="#111827">Llama-family</text>
<rect x="210.0" y="265.0" width="113.8" height="20" fill="#059669" opacity="0.20"/>
<line x1="298.9" y1="275.0" x2="348.6" y2="275.0" stroke="#059669" stroke-width="3"/>
<line x1="298.9" y1="267.0" x2="298.9" y2="283.0" stroke="#059669" stroke-width="2"/>
<line x1="348.6" y1="267.0" x2="348.6" y2="283.0" stroke="#059669" stroke-width="2"/>
<circle cx="323.8" cy="275.0" r="6" fill="#059669" stroke="#ffffff" stroke-width="2"/>
<text x="333.8" y="258.0" text-anchor="start" font-family="Segoe UI,Arial,sans-serif" font-size="12" font-weight="600" fill="#111827">46.54%</text>
<text x="195" y="360.0" text-anchor="end" font-family="Segoe UI,Arial,sans-serif" font-size="14" font-weight="600" fill="#111827">Gemma</text>
<rect x="210.0" y="345.0" width="179.4" height="20" fill="#d97706" opacity="0.20"/>
<line x1="364.7" y1="355.0" x2="414.0" y2="355.0" stroke="#d97706" stroke-width="3"/>
<line x1="364.7" y1="347.0" x2="364.7" y2="363.0" stroke="#d97706" stroke-width="2"/>
<line x1="414.0" y1="347.0" x2="414.0" y2="363.0" stroke="#d97706" stroke-width="2"/>
<circle cx="389.4" cy="355.0" r="6" fill="#d97706" stroke="#ffffff" stroke-width="2"/>
<text x="399.4" y="338.0" text-anchor="start" font-family="Segoe UI,Arial,sans-serif" font-size="12" font-weight="600" fill="#111827">73.38%</text>
<text x="555.0" y="118" font-family="Segoe UI,Arial,sans-serif" font-size="17" font-weight="600" fill="#111827">Board energy reduction</text>
<rect x="555.0" y="145.0" width="220.0" height="260.0" fill="#f9fafb" stroke="#d1d5db"/>
<line x1="555.0" y1="145.0" x2="555.0" y2="405.0" stroke="#e5e7eb"/>
<text x="555.0" y="430" text-anchor="middle" font-family="Segoe UI,Arial,sans-serif" font-size="12" fill="#4b5563">0</text>
<line x1="610.0" y1="145.0" x2="610.0" y2="405.0" stroke="#e5e7eb"/>
<text x="610.0" y="430" text-anchor="middle" font-family="Segoe UI,Arial,sans-serif" font-size="12" fill="#4b5563">18</text>
<line x1="665.0" y1="145.0" x2="665.0" y2="405.0" stroke="#e5e7eb"/>
<text x="665.0" y="430" text-anchor="middle" font-family="Segoe UI,Arial,sans-serif" font-size="12" fill="#4b5563">35</text>
<line x1="720.0" y1="145.0" x2="720.0" y2="405.0" stroke="#e5e7eb"/>
<text x="720.0" y="430" text-anchor="middle" font-family="Segoe UI,Arial,sans-serif" font-size="12" fill="#4b5563">52</text>
<line x1="775.0" y1="145.0" x2="775.0" y2="405.0" stroke="#e5e7eb"/>
<text x="775.0" y="430" text-anchor="middle" font-family="Segoe UI,Arial,sans-serif" font-size="12" fill="#4b5563">70</text>
<text x="665.0" y="456" text-anchor="middle" font-family="Segoe UI,Arial,sans-serif" font-size="13" fill="#374151">Reduction (%)</text>
<rect x="555.0" y="185.0" width="68.8" height="20" fill="#2563eb" opacity="0.20"/>
<line x1="588.5" y1="195.0" x2="659.1" y2="195.0" stroke="#2563eb" stroke-width="3"/>
<line x1="588.5" y1="187.0" x2="588.5" y2="203.0" stroke="#2563eb" stroke-width="2"/>
<line x1="659.1" y1="187.0" x2="659.1" y2="203.0" stroke="#2563eb" stroke-width="2"/>
<circle cx="623.8" cy="195.0" r="6" fill="#2563eb" stroke="#ffffff" stroke-width="2"/>
<text x="633.8" y="178.0" text-anchor="start" font-family="Segoe UI,Arial,sans-serif" font-size="12" font-weight="600" fill="#111827">21.90%</text>
<rect x="555.0" y="265.0" width="123.3" height="20" fill="#059669" opacity="0.20"/>
<line x1="651.3" y1="275.0" x2="705.2" y2="275.0" stroke="#059669" stroke-width="3"/>
<line x1="651.3" y1="267.0" x2="651.3" y2="283.0" stroke="#059669" stroke-width="2"/>
<line x1="705.2" y1="267.0" x2="705.2" y2="283.0" stroke="#059669" stroke-width="2"/>
<circle cx="678.3" cy="275.0" r="6" fill="#059669" stroke="#ffffff" stroke-width="2"/>
<text x="688.3" y="258.0" text-anchor="start" font-family="Segoe UI,Arial,sans-serif" font-size="12" font-weight="600" fill="#111827">39.23%</text>
<rect x="555.0" y="345.0" width="149.3" height="20" fill="#d97706" opacity="0.20"/>
<line x1="653.4" y1="355.0" x2="755.2" y2="355.0" stroke="#d97706" stroke-width="3"/>
<line x1="653.4" y1="347.0" x2="653.4" y2="363.0" stroke="#d97706" stroke-width="2"/>
<line x1="755.2" y1="347.0" x2="755.2" y2="363.0" stroke="#d97706" stroke-width="2"/>
<circle cx="704.3" cy="355.0" r="6" fill="#d97706" stroke="#ffffff" stroke-width="2"/>
<text x="714.3" y="338.0" text-anchor="start" font-family="Segoe UI,Arial,sans-serif" font-size="12" font-weight="600" fill="#111827">47.51%</text>
<text x="900.0" y="118" font-family="Segoe UI,Arial,sans-serif" font-size="17" font-weight="600" fill="#111827">Allocator peak reduction</text>
<rect x="900.0" y="145.0" width="220.0" height="260.0" fill="#f9fafb" stroke="#d1d5db"/>
<line x1="900.0" y1="145.0" x2="900.0" y2="405.0" stroke="#e5e7eb"/>
<text x="900.0" y="430" text-anchor="middle" font-family="Segoe UI,Arial,sans-serif" font-size="12" fill="#4b5563">0</text>
<line x1="955.0" y1="145.0" x2="955.0" y2="405.0" stroke="#e5e7eb"/>
<text x="955.0" y="430" text-anchor="middle" font-family="Segoe UI,Arial,sans-serif" font-size="12" fill="#4b5563">2</text>
<line x1="1010.0" y1="145.0" x2="1010.0" y2="405.0" stroke="#e5e7eb"/>
<text x="1010.0" y="430" text-anchor="middle" font-family="Segoe UI,Arial,sans-serif" font-size="12" fill="#4b5563">5</text>
<line x1="1065.0" y1="145.0" x2="1065.0" y2="405.0" stroke="#e5e7eb"/>
<text x="1065.0" y="430" text-anchor="middle" font-family="Segoe UI,Arial,sans-serif" font-size="12" fill="#4b5563">8</text>
<line x1="1120.0" y1="145.0" x2="1120.0" y2="405.0" stroke="#e5e7eb"/>
<text x="1120.0" y="430" text-anchor="middle" font-family="Segoe UI,Arial,sans-serif" font-size="12" fill="#4b5563">10</text>
<text x="1010.0" y="456" text-anchor="middle" font-family="Segoe UI,Arial,sans-serif" font-size="13" fill="#374151">Reduction (%)</text>
<rect x="900.0" y="185.0" width="178.9" height="20" fill="#2563eb" opacity="0.20"/>
<circle cx="1078.9" cy="195.0" r="6" fill="#2563eb" stroke="#ffffff" stroke-width="2"/>
<text x="1088.9" y="178.0" text-anchor="start" font-family="Segoe UI,Arial,sans-serif" font-size="12" font-weight="600" fill="#111827">8.13%</text>
<rect x="900.0" y="265.0" width="124.6" height="20" fill="#059669" opacity="0.20"/>
<circle cx="1024.6" cy="275.0" r="6" fill="#059669" stroke="#ffffff" stroke-width="2"/>
<text x="1034.6" y="258.0" text-anchor="start" font-family="Segoe UI,Arial,sans-serif" font-size="12" font-weight="600" fill="#111827">5.66%</text>
<rect x="900.0" y="345.0" width="10.3" height="20" fill="#d97706" opacity="0.20"/>
<circle cx="910.3" cy="355.0" r="6" fill="#d97706" stroke="#ffffff" stroke-width="2"/>
<text x="920.3" y="338.0" text-anchor="start" font-family="Segoe UI,Arial,sans-serif" font-size="12" font-weight="600" fill="#111827">0.47%</text>
<line x1="60" y1="492" x2="1140" y2="492" stroke="#d1d5db"/>
<text x="60" y="522" font-family="Segoe UI,Arial,sans-serif" font-size="15" font-weight="600" fill="#991b1b">Diagnostic only — official promotion gate: NOT PASSED</text>
<text x="60" y="550" font-family="Segoe UI,Arial,sans-serif" font-size="13" fill="#4b5563">Time and energy whiskers: two-sided 95% paired t-intervals. Allocator panel: observed point reduction; no sampling interval.</text>
<text x="60" y="575" font-family="Segoe UI,Arial,sans-serif" font-size="13" fill="#4b5563">Clocks were not locked; one Gemma pair had a power-envelope mismatch. Soup, 7B/8B endurance, and independent reproduction remain open.</text>
</svg>
